# xmcd
#
# Track frame offsets: 
#        150
#        14627
#        31805
#        54882
#        71257
#        88155
#        113560
#        129370
#        142047
#        153450
#        167070
#        193190
#        212532
#        227827
#        242359
#        254405
#        271027
#        284905
#        301882
#        317722
#
# Disc length: 4434 seconds
#
# Revision: 3
# Processed by: cddbd v1.5.2PL0 Copyright (c) Steve Scherf et al.
# Submitted via: ExactAudioCopy v0.99pb4
#
DISCID=16115014
DTITLE=Various Artist - Super Rare Disco, Vol 1
DYEAR=1997
DGENRE=Disco
TTITLE0=Jimmy Ruffin - Tell Me What You Want
TTITLE1=Crown Heights Affair - Dreaming a Dream
TTITLE2=Ecstasy, Passion and Pain feat Barbara Roy - Touch and Go
TTITLE3=The Joneses - Sugar Pie Guy
TTITLE4=Hamilton Bohannon - Foot Stompin Music
TTITLE5=South Shore Comission - Free Man
TTITLE6=Four Below Zero - My Baby's Got E.S.P.
TTITLE7=The Tymes - You Little Trustmaker
TTITLE8=Lyn Collins The Female Preacher - Rock Me Again and Again (6 tim
TTITLE8=es)
TTITLE9=Poison - Let Me Lay My Funk On You
TTITLE10=Al Downing - I'll Be Holding On
TTITLE11=Don Downing - Dream World
TTITLE12=Faith Hope and Charity - To Each His Own
TTITLE13=The Glitter Band - Makes You Blind
TTITLE14=Eddie Kendricks - Date with the Rain
TTITLE15=The Jimmy Castor Bunch - It's Just Begun
TTITLE16=Moments and Whatnauts - Girls
TTITLE17=First Choice - The Player
TTITLE18=B.T. Express - Peace Pipe
TTITLE19=The Trammps - Hold Back the Night
EXTD=Disco hits from the 70's \n(C) 1997 Robbins Entertainment LLC\n76
EXTD=869-75005-2\n YEAR: 1997
EXTT0=
EXTT1=
EXTT2=
EXTT3=
EXTT4=
EXTT5=
EXTT6=
EXTT7=
EXTT8=
EXTT9=
EXTT10=
EXTT11=
EXTT12=
EXTT13=
EXTT14=
EXTT15=
EXTT16=
EXTT17=
EXTT18=
EXTT19=
PLAYORDER=
